<svg id="Layer_5" enable-background="new 0 0 64 64" height="512" viewBox="0 0 64 64" width="512" xmlns="http://www.w3.org/2000/svg"><path d="m55.706 17.167c1.405-1.281 2.294-3.12 2.294-5.167 0-3.859-3.141-7-7-7s-7 3.141-7 7c0 1.958.81 3.728 2.111 5h-15.111v-2.219l1.302-.325c1.589-.397 2.698-1.818 2.698-3.456s-1.109-3.059-2.698-3.455l-17.428-4.357c-.356-1.258-1.503-2.188-2.874-2.188-1.654 0-3 1.346-3 3v14c0 1.654 1.346 3 3 3 1.371 0 2.518-.93 2.874-2.188l8.126-2.032v7.22c0 2.206 1.794 4 4 4s4-1.794 4-4h12c.552 0 1 .448 1 1v21h-22v-3.618l-15.236 7.618 15.236 7.618v-3.618h22v5c0 2.206 1.794 4 4 4 1.201 0 2.266-.542 3-1.382.734.84 1.799 1.382 3 1.382 2.206 0 4-1.794 4-4v-18c2.757 0 5-2.243 5-5v-10c0-4.379-3.145-8.033-7.294-8.833zm-3.743 10.456-.963.963-.963-.963.754-8.623h.417zm-5.963-15.623c0-2.757 2.243-5 5-5s5 2.243 5 5-2.243 5-5 5-5-2.243-5-5zm-31 4.72v-11.44l12 3v5.44zm18-5.72c0 .718-.486 1.341-1.183 1.516l-2.817.704v-4.44l2.817.704c.697.175 1.183.798 1.183 1.516zm-20 7c0 .552-.448 1-1 1s-1-.448-1-1v-14c0-.552.448-1 1-1s1 .448 1 1zm14 8c-1.103 0-2-.897-2-2v-7.72l4-1v8.72c0 1.103-.897 2-2 2zm-7 26v2.382l-8.764-4.382 8.764-4.382v2.382h24v4zm41-16c0 1.654-1.346 3-3 3v-15h-2v35c0 1.103-.897 2-2 2s-2-.897-2-2v-24h-2v24c0 1.103-.897 2-2 2s-2-.897-2-2v-34c0-1.654-1.346-3-3-3h-12v-3h17.784l-.821 9.377 3.037 3.037 3.037-3.037-.821-9.377h.784c3.859 0 7 3.141 7 7z"/><path d="m1 10h6v2h-6z"/><path d="m2.072 14h6v2h-6z" transform="matrix(.866 -.5 .5 .866 -6.82 4.544)"/><path d="m4.072 4h2v6h-2z" transform="matrix(.5 -.866 .866 .5 -3.526 7.892)"/><path d="m16 38h26v-2h-28v2.382l-8.764-4.382 8.764-4.382v2.382h18v-2h-16v-3.618l-15.236 7.618 15.236 7.618z"/><path d="m34 30h2v2h-2z"/><path d="m38 30h2v2h-2z"/></svg>